<svg width="1910" height="1080" viewBox="0 0 1910 1080" fill="none" xmlns="http://www.w3.org/2000/svg">
<path d="M84 0L84 1080" stroke="#1A1A1A"/>
<path d="M167 0L167 1080" stroke="#1A1A1A"/>
<path d="M250 0L250 1080" stroke="#1A1A1A"/>
<path d="M333 0L333 1080" stroke="#1A1A1A"/>
<path d="M416 0L416 1080" stroke="#1A1A1A"/>
<path d="M499 0L499 1080" stroke="#1A1A1A"/>
<path d="M582 0L582 1080" stroke="#1A1A1A"/>
<path d="M665 0L665 1080" stroke="#1A1A1A"/>
<path d="M748 0L748 1080" stroke="#1A1A1A"/>
<path d="M831 0L831 1080" stroke="#1A1A1A"/>
<path d="M914 0L914 1080" stroke="#1A1A1A"/>
<path d="M997 0L997 1080" stroke="#1A1A1A"/>
<path d="M1080 0V1080" stroke="#1A1A1A"/>
<path d="M1163 0V1080" stroke="#1A1A1A"/>
<path d="M1246 0V1080" stroke="#1A1A1A"/>
<path d="M1329 0V1080" stroke="#1A1A1A"/>
<path d="M1412 0V1080" stroke="#1A1A1A"/>
<path d="M1495 0V1080" stroke="#1A1A1A"/>
<path d="M1578 0V1080" stroke="#1A1A1A"/>
<path d="M1661 0V1080" stroke="#1A1A1A"/>
<path d="M1744 0V1080" stroke="#1A1A1A"/>
<path d="M1827 0V1080" stroke="#1A1A1A"/>
<line x1="-0.000505561" y1="92.4312" x2="1910" y2="90.5" stroke="#1A1A1A"/>
<line x1="-0.000505561" y1="185.431" x2="1910" y2="183.5" stroke="#1A1A1A"/>
<line x1="-0.000505561" y1="278.431" x2="1910" y2="276.5" stroke="#1A1A1A"/>
<line x1="-0.000505561" y1="371.431" x2="1910" y2="369.5" stroke="#1A1A1A"/>
<line x1="-0.000505561" y1="464.431" x2="1910" y2="462.5" stroke="#1A1A1A"/>
<line x1="-0.000505561" y1="557.431" x2="1910" y2="555.5" stroke="#1A1A1A"/>
<line x1="-0.000505561" y1="650.431" x2="1910" y2="648.5" stroke="#1A1A1A"/>
<line x1="-0.000505561" y1="743.431" x2="1910" y2="741.5" stroke="#1A1A1A"/>
<line x1="-0.000505561" y1="836.431" x2="1910" y2="834.5" stroke="#1A1A1A"/>
<line x1="-0.000505561" y1="929.431" x2="1910" y2="927.5" stroke="#1A1A1A"/>
<line x1="-0.000505561" y1="1022.43" x2="1910" y2="1020.5" stroke="#1A1A1A"/>
</svg>
